<?xml version="1.0" encoding="UTF-8"?>
<svg id="Layer_1" data-name="Layer 1" xmlns="http://www.w3.org/2000/svg" viewBox="0 0 107.14 63.13">
  <defs>
    <style>
      .cls-1 {
        fill: #b1c4a6;
      }

      .cls-2 {
        fill: #4d5d57;
      }
    </style>
  </defs>
  <circle class="cls-2" cx="75.71" cy="22.14" r="22.14"/>
  <path class="cls-1" d="m89.46,62.79c-.85.11-1.76.16-2.58.16H22.87C11.78,64.41,1.6,56.56.17,45.44c-1.45-11.09,6.39-21.27,17.51-22.7.93-.11,1.87-.16,2.77-.16,1.07-8.97,8.12-16.41,17.51-17.65,8.4-1.07,16.25,3.16,20.2,10.07.91-.27,1.84-.44,2.8-.58,7.99-1.02,15.45,2.72,19.57,9,1.21-.41,2.44-.69,3.73-.85,11.09-1.43,21.27,6.39,22.7,17.51,1.45,11.09-6.39,21.27-17.51,22.7Z"/>
</svg>