<?xml version="1.0" encoding="UTF-8"?>
<svg id="Layer_1" data-name="Layer 1" xmlns="http://www.w3.org/2000/svg" viewBox="0 0 99.1 99.1">
  <defs>
    <style>
      .cls-1 {
        fill: none;
      }

      .cls-2 {
        fill: #b1c4a6;
      }
    </style>
  </defs>
  <g>
    <path class="cls-2" d="m51.91,24.08c0,5.55-4.5,10.05-10.05,10.05h-25.48c-1.13,0-2.05-.9-2.05-2.05s.92-2.05,2.05-2.05h25.48c3.27,0,5.94-2.65,5.94-5.94s-2.67-5.94-5.94-5.94h-8.08c1.81-2.49,4.75-4.11,8.08-4.11,5.55,0,10.05,4.5,10.05,10.05Z"/>
    <path class="cls-2" d="m66.67,73.71c0-6.27-5.08-11.35-11.35-11.35H16.65c-1.28,0-2.32,1.02-2.32,2.32s1.04,2.32,2.32,2.32h38.66c3.69,0,6.71,3,6.71,6.71s-3.02,6.71-6.71,6.71h-9.12c2.04,2.81,5.36,4.64,9.12,4.64,6.27,0,11.35-5.08,11.35-11.35Z"/>
    <path class="cls-2" d="m84.77,38.06c0,7.19-5.83,13.03-13.03,13.03H17c-1.47,0-2.66-1.17-2.66-2.66s1.2-2.66,2.66-2.66h54.74c4.24,0,7.7-3.44,7.7-7.7s-3.46-7.7-7.7-7.7h-10.47c2.34-3.22,6.15-5.33,10.47-5.33,7.19,0,13.03,5.83,13.03,13.03Z"/>
  </g>
  <rect class="cls-1" width="99.1" height="99.1"/>
</svg>