<?xml version="1.0" encoding="UTF-8"?>
<svg id="Layer_1" data-name="Layer 1" xmlns="http://www.w3.org/2000/svg" viewBox="0 0 115.75 102.24">
  <defs>
    <style>
      .cls-1 {
        fill: #b1c4a6;
      }

      .cls-2 {
        fill: #829687;
      }

      .cls-3 {
        fill: #4d5d57;
      }
    </style>
  </defs>
  <path class="cls-2" d="m21.75,91.85c-.35,0-.71-.09-1.04-.28-.98-.58-1.31-1.84-.74-2.82l4.4-7.51c.57-.98,1.84-1.31,2.82-.74.98.58,1.31,1.84.74,2.82l-4.4,7.51c-.38.65-1.07,1.02-1.78,1.02Z"/>
  <path class="cls-2" d="m49.74,91.85c-.35,0-.71-.09-1.04-.28-.98-.57-1.31-1.84-.73-2.82l4.41-7.51c.57-.98,1.83-1.31,2.82-.73.98.57,1.31,1.84.73,2.82l-4.41,7.51c-.38.65-1.07,1.02-1.78,1.02Z"/>
  <path class="cls-2" d="m31.34,102.24c-.35,0-.71-.09-1.04-.28-.98-.58-1.31-1.84-.74-2.82l4.4-7.51c.57-.98,1.84-1.31,2.82-.74.98.58,1.31,1.84.74,2.82l-4.4,7.51c-.38.65-1.07,1.02-1.78,1.02Z"/>
  <path class="cls-2" d="m59.34,102.24c-.35,0-.71-.09-1.04-.28-.98-.58-1.31-1.84-.74-2.82l4.4-7.51c.57-.98,1.83-1.31,2.82-.74.98.58,1.31,1.84.74,2.82l-4.4,7.51c-.38.65-1.07,1.02-1.78,1.02Z"/>
  <path class="cls-2" d="m77.74,91.85c-.35,0-.71-.09-1.04-.28-.98-.58-1.31-1.84-.74-2.82l4.4-7.51c.57-.98,1.84-1.31,2.82-.74.98.58,1.31,1.84.74,2.82l-4.4,7.51c-.38.65-1.07,1.02-1.78,1.02Z"/>
  <circle class="cls-3" cx="84.33" cy="22.14" r="22.14"/>
  <path class="cls-2" d="m98.07,62.87c-.85.11-1.76.16-2.58.16H31.49c-11.09,1.45-21.27-6.39-22.7-17.51-1.45-11.09,6.39-21.27,17.51-22.7.93-.11,1.87-.16,2.77-.16,1.07-8.97,8.12-16.41,17.51-17.65,8.4-1.07,16.25,3.16,20.2,10.07.91-.27,1.84-.44,2.8-.58,7.99-1.02,15.45,2.72,19.57,9,1.21-.41,2.44-.69,3.73-.85,11.09-1.43,21.27,6.39,22.7,17.51,1.45,11.09-6.39,21.27-17.51,22.7Z"/>
  <path class="cls-1" d="m89.46,73.49c-.85.11-1.76.16-2.58.16H22.87c-11.09,1.45-21.27-6.39-22.7-17.51-1.45-11.09,6.39-21.27,17.51-22.7.93-.11,1.87-.16,2.77-.16,1.07-8.97,8.12-16.41,17.51-17.65,8.4-1.07,16.25,3.16,20.2,10.07.91-.27,1.84-.44,2.8-.58,7.99-1.02,15.45,2.72,19.57,9,1.21-.41,2.44-.69,3.73-.85,11.09-1.43,21.27,6.39,22.7,17.51,1.45,11.09-6.39,21.27-17.51,22.7Z"/>
</svg>