<?xml version="1.0" encoding="UTF-8"?>
<svg id="Layer_1" data-name="Layer 1" xmlns="http://www.w3.org/2000/svg" viewBox="0 0 107.14 58.36">
  <defs>
    <style>
      .cls-1 {
        fill: #d5e8bf;
      }
    </style>
  </defs>
  <path class="cls-1" d="m89.46,58.02c-.85.11-1.76.16-2.58.16H22.87C11.78,59.64,1.6,51.79.17,40.68c-1.45-11.09,6.39-21.27,17.51-22.7.93-.11,1.87-.16,2.77-.16C21.53,8.84,28.58,1.4,37.97.17c8.4-1.07,16.25,3.16,20.2,10.07.91-.27,1.84-.44,2.8-.58,7.99-1.02,15.45,2.72,19.57,9,1.21-.41,2.44-.69,3.73-.85,11.09-1.43,21.27,6.39,22.7,17.51,1.45,11.09-6.39,21.27-17.51,22.7Z"/>
</svg>