<?xml version="1.0" encoding="UTF-8"?>
<svg id="Layer_1" data-name="Layer 1" xmlns="http://www.w3.org/2000/svg" viewBox="0 0 115.75 97.14">
  <defs>
    <style>
      .cls-1 {
        fill: #fdba4d;
      }

      .cls-2 {
        fill: #b1c4a6;
      }

      .cls-3 {
        fill: #d5e8bf;
      }
    </style>
  </defs>
  <polyline class="cls-1" points="47.67 62.49 62.65 62.49 55.89 74.8 62.65 74.8 47.27 97.14 50.15 82.1 45.18 82.1"/>
  <polyline class="cls-1" points="23.08 67.08 31.28 67.08 27.58 73.82 31.28 73.82 22.86 86.05 24.44 77.82 21.72 77.82"/>
  <polyline class="cls-1" points="77.91 67.08 86.11 67.08 82.41 73.82 86.11 73.82 77.69 86.05 79.27 77.82 76.55 77.82"/>
  <path class="cls-2" d="m98.07,58.02c-.85.11-1.76.16-2.58.16H31.49c-11.09,1.45-21.27-6.39-22.7-17.51-1.45-11.09,6.39-21.27,17.51-22.7.93-.11,1.87-.16,2.77-.16C30.14,8.84,37.2,1.4,46.58.17c8.4-1.07,16.25,3.16,20.2,10.07.91-.27,1.84-.44,2.8-.58,7.99-1.02,15.45,2.72,19.57,9,1.21-.41,2.44-.69,3.73-.85,11.09-1.43,21.27,6.39,22.7,17.51,1.45,11.09-6.39,21.27-17.51,22.7Z"/>
  <path class="cls-3" d="m89.46,68.64c-.85.11-1.76.16-2.58.16H22.87C11.78,70.26,1.6,62.41.17,51.29c-1.45-11.09,6.39-21.27,17.51-22.7.93-.11,1.87-.16,2.77-.16,1.07-8.97,8.12-16.41,17.51-17.65,8.4-1.07,16.25,3.16,20.2,10.07.91-.27,1.84-.44,2.8-.58,7.99-1.02,15.45,2.72,19.57,9,1.21-.41,2.44-.69,3.73-.85,11.09-1.43,21.27,6.39,22.7,17.51,1.45,11.09-6.39,21.27-17.51,22.7Z"/>
</svg>